<svg xmlns="http://www.w3.org/2000/svg" viewBox="0 0 256 256">
    <defs>
        <style>.a,.b,.d,.e{fill:none;stroke-miterlimit:10;}.a{stroke:#58595b;}.a,.d{stroke-width:3px;}.b,.d,.e{stroke:#231f20;}.b{stroke-width:5px;}.c{fill:#231f20;}.e{stroke-width:7px;}</style>
    </defs>
    <title>graphion</title>
    <polyline class="a" points="210.341 181.958 123.739 131.958 123.739 31.958 123.739 131.958 37.136 181.958"/>
    <line class="b" x1="123.73877" y1="115.95833" x2="123.73877" y2="65.95833"/>
    <path class="c" d="M65.23877,96.70833a13,13,0,1,0,13,13A13,13,0,0,0,65.23877,96.70833Zm0,21a8,8,0,1,1,8-8A8,8,0,0,1,65.23877,117.70833Z"/>
    <line class="d" x1="74.5721" y1="113.125" x2="106.15544" y2="125.45833"/>
    <path class="c" d="M202.61377,114.95833a17,17,0,1,0,17,17A17,17,0,0,0,202.61377,114.95833Zm0,29a12,12,0,1,1,12-12A12,12,0,0,1,202.61377,143.95833Z"/>
    <line class="b" x1="142.23877" y1="131.95833" x2="189.23877" y2="131.95833"/>
    <path class="c" d="M123.73877,198.04167a13,13,0,1,0,13,13A13,13,0,0,0,123.73877,198.04167Zm0,21a8,8,0,1,1,8-8A8,8,0,0,1,123.73877,219.04167Z"/>
    <line class="b" x1="123.73877" y1="149.95833" x2="123.73877" y2="200.29167"/>
    <path class="c" d="M59.78044,150.375a18,18,0,1,0,18,18A18,18,0,0,0,59.78044,150.375Zm0,29.5a11.5,11.5,0,1,1,11.5-11.5A11.5,11.5,0,0,1,59.78044,179.875Z"/>
    <line class="e" x1="72.06159" y1="158.94013" x2="107.03044" y2="140.75"/>
    <path class="c" d="M123.73877,33.04167a18,18,0,1,0,18,18A18,18,0,0,0,123.73877,33.04167Zm0,29.5a11.5,11.5,0,1,1,11.5-11.5A11.5,11.5,0,0,1,123.73877,62.54167Z"/>
    <path class="c" d="M123.73877,110.95833a21,21,0,1,0,21,21A21,21,0,0,0,123.73877,110.95833Zm0,35a14,14,0,1,1,14-14A14,14,0,0,1,123.73877,145.95833Z"/>
</svg>