<svg xmlns="http://www.w3.org/2000/svg" viewBox="0 0 256 256">
    <defs>
        <style>.a{fill:#231f20;}</style>
    </defs>
    <title>icon-radial-diagram</title>
    <path class="a" d="M212.24774,107.0791a21,21,0,0,0-26.46155-13.48285c-.26007.08454-.50335.19568-.75781.28925a70.12293,70.12293,0,0,0-36.06775-26.23657c.00958-.26081.03937-.5163.03937-.77942a21,21,0,1,0-42,0c0,.26312.02979.51861.03937.77942A70.12293,70.12293,0,0,0,70.97162,93.8855c-.25446-.09357-.49774-.20471-.75781-.28925a21,21,0,0,0-12.97876,39.9444c.25995.08447.52191.13745.78265.2113-.00232.23456-.0177.46582-.0177.70093a69.68232,69.68232,0,0,0,13.78613,41.71271c-.16449.20941-.34216.40265-.5.61987a21,21,0,0,0,33.97876,24.68695c.15814-.21771.2873-.44684.43592-.66845a69.96159,69.96159,0,0,0,44.59838,0c.14862.22161.27778.45074.43592.66845a21,21,0,0,0,33.97876-24.68695c-.15784-.21722-.33551-.41046-.5-.61987A69.68232,69.68232,0,0,0,198,134.45288c0-.23511-.01538-.46637-.0177-.70093.26074-.07385.5227-.12683.78265-.2113A21,21,0,0,0,212.24774,107.0791Zm-98.1961-41.23248a13.98471,13.98471,0,0,1,27.89672,0c.0246.33905.05164.67755.05164,1.02289a14,14,0,0,1-28,0C114,66.52417,114.027,66.18567,114.05164,65.84662Zm-63.642,43.39563a13.9904,13.9904,0,0,1,16.66888-9.251c.32447.08045.64923.15753.97211.26245a14,14,0,0,1-8.65247,26.62958c-.32226-.10468-.62964-.233-.93884-.35834A13.99037,13.99037,0,0,1,50.40967,109.24225Zm51.35614,83.58331a13.93743,13.93743,0,0,1-2.16406,4.53235c-.20032.2757-.41846.53-.63459.78668A13.98433,13.98433,0,0,1,76.39893,181.7439c.17688-.28394.35064-.5691.55035-.84394a13.99216,13.99216,0,0,1,24.81653,11.9256Zm74.18768,7.62958a13.99051,13.99051,0,0,1-18.92065-2.31055c-.21613-.25671-.43427-.511-.63459-.78668A14,14,0,0,1,179.05072,180.9c.19971.27484.37347.56.55035.84394A13.99049,13.99049,0,0,1,175.95349,200.45514Zm3.87317-28.47107A20.97955,20.97955,0,0,0,147.683,195.35516a64.08228,64.08228,0,0,1-39.36608,0,20.97955,20.97955,0,0,0-32.14362-23.37109A63.69034,63.69034,0,0,1,64.0025,134.55273,20.97947,20.97947,0,0,0,76.28882,96.75928a64.11509,64.11509,0,0,1,31.83844-23.14453,20.9798,20.9798,0,0,0,39.74548,0,64.11509,64.11509,0,0,1,31.83844,23.14453,20.97947,20.97947,0,0,0,12.28632,37.79345A63.69034,63.69034,0,0,1,179.82666,171.98407Zm17.714-45.45917c-.3092.12537-.61658.25366-.93884.35834a14,14,0,0,1-8.65247-26.62958c.32288-.10492.64764-.182.97211-.26245a13.98427,13.98427,0,0,1,8.6192,26.53369Z"/>
</svg>