<?xml version="1.0" encoding="utf-8"?>
<!-- Generator: Adobe Illustrator 23.0.3, SVG Export Plug-In . SVG Version: 6.00 Build 0)  -->
<svg version="1.1" id="Layer_1" xmlns="http://www.w3.org/2000/svg" xmlns:xlink="http://www.w3.org/1999/xlink" x="0px" y="0px"
	 viewBox="0 0 500 220" style="enable-background:new 0 0 500 220;" xml:space="preserve">
<style type="text/css">
	.st0{fill:#707070;stroke:#000000;stroke-miterlimit:10;}
	.st1{fill:#C40000;stroke:#000000;stroke-miterlimit:10;}
	.st2{fill:#0080FF;stroke:#000000;stroke-miterlimit:10;}
	.st3{fill:#009471;stroke:#000000;stroke-miterlimit:10;}
	.st4{fill:none;stroke:#000000;stroke-width:2;stroke-miterlimit:10;}
</style>
<ellipse class="st0" cx="107.91" cy="123.03" rx="13.53" ry="13.89"/>
<ellipse class="st0" cx="59.88" cy="151.79" rx="13.53" ry="13.89"/>
<ellipse class="st0" cx="41.63" cy="30.33" rx="13.53" ry="13.89"/>
<ellipse class="st0" cx="77.05" cy="31.94" rx="13.53" ry="13.89"/>
<ellipse class="st0" cx="32.82" cy="177.05" rx="13.53" ry="13.89"/>
<ellipse class="st0" cx="78.05" cy="198.23" rx="13.53" ry="13.89"/>
<ellipse class="st0" cx="149.96" cy="197.57" rx="13.53" ry="13.89"/>
<ellipse class="st0" cx="167.06" cy="133.98" rx="13.53" ry="13.89"/>
<ellipse class="st0" cx="177.53" cy="23.77" rx="13.53" ry="13.89"/>
<ellipse class="st0" cx="118.75" cy="62.84" rx="13.53" ry="13.89"/>
<ellipse class="st0" cx="177.91" cy="171.66" rx="13.53" ry="13.89"/>
<ellipse class="st0" cx="31.82" cy="65.73" rx="13.53" ry="13.89"/>
<ellipse class="st0" cx="75.29" cy="79.62" rx="13.53" ry="13.89"/>
<ellipse class="st0" cx="19.29" cy="138.87" rx="13.53" ry="13.89"/>
<ellipse class="st0" cx="408.18" cy="119.55" rx="13.53" ry="13.89"/>
<ellipse class="st1" cx="360.15" cy="148.3" rx="13.53" ry="13.89"/>
<ellipse class="st2" cx="341.9" cy="26.84" rx="13.53" ry="13.89"/>
<ellipse class="st2" cx="377.32" cy="28.46" rx="13.53" ry="13.89"/>
<ellipse class="st1" cx="333.09" cy="173.56" rx="13.53" ry="13.89"/>
<ellipse class="st1" cx="378.32" cy="194.74" rx="13.53" ry="13.89"/>
<ellipse class="st3" cx="450.23" cy="194.08" rx="13.53" ry="13.89"/>
<ellipse class="st3" cx="467.33" cy="130.5" rx="13.53" ry="13.89"/>
<ellipse class="st0" cx="477.8" cy="20.29" rx="13.53" ry="13.89"/>
<ellipse class="st2" cx="419.02" cy="59.36" rx="13.53" ry="13.89"/>
<ellipse class="st3" cx="478.18" cy="168.17" rx="13.53" ry="13.89"/>
<ellipse class="st2" cx="332.09" cy="62.25" rx="13.53" ry="13.89"/>
<ellipse class="st2" cx="375.56" cy="76.14" rx="13.53" ry="13.89"/>
<ellipse class="st1" cx="319.56" cy="135.39" rx="13.53" ry="13.89"/>
<line class="st4" x1="201.43" y1="106.52" x2="287.95" y2="106.52"/>
<line class="st4" x1="259.43" y1="90.61" x2="286.95" y2="106.52"/>
<line class="st4" x1="259.43" y1="122.42" x2="286.95" y2="106.52"/>
</svg>
