<?xml version="1.0" encoding="utf-8"?>
<!-- Generator: Adobe Illustrator 23.0.3, SVG Export Plug-In . SVG Version: 6.00 Build 0)  -->
<svg version="1.1" id="Layer_1" xmlns="http://www.w3.org/2000/svg" xmlns:xlink="http://www.w3.org/1999/xlink" x="0px" y="0px"
	 viewBox="0 0 500 220" style="enable-background:new 0 0 500 220;" xml:space="preserve">
<style type="text/css">
	.st0{fill:#707070;stroke:#000000;stroke-miterlimit:10;}
	.st1{fill:#0080FF;stroke:#000000;stroke-miterlimit:10;}
	.st2{fill:none;stroke:#000000;stroke-miterlimit:10;}
</style>
<ellipse class="st0" cx="167.32" cy="56.15" rx="13.53" ry="13.89"/>
<ellipse class="st0" cx="366.28" cy="34.28" rx="13.53" ry="13.89"/>
<ellipse class="st0" cx="400.77" cy="161.94" rx="13.53" ry="13.89"/>
<ellipse class="st1" cx="275.04" cy="107.43" rx="13.53" ry="13.89"/>
<ellipse class="st1" cx="98.88" cy="127.46" rx="13.53" ry="13.89"/>
<ellipse class="st0" cx="288.53" cy="186.39" rx="13.53" ry="13.89"/>
<ellipse class="st0" cx="288.57" cy="35.43" rx="13.53" ry="13.89"/>
<ellipse class="st0" cx="163.32" cy="109.69" rx="13.53" ry="13.89"/>
<ellipse class="st0" cx="147.11" cy="180.6" rx="13.53" ry="13.89"/>
<ellipse class="st0" cx="356.42" cy="90.25" rx="13.53" ry="13.89"/>
<line class="st2" x1="179.61" y1="61.95" x2="262.82" y2="101.46"/>
<line class="st2" x1="176.85" y1="109.69" x2="261.51" y2="107.43"/>
<line class="st2" x1="265.16" y1="116.91" x2="158.1" y2="172.5"/>
<line class="st2" x1="278.8" y1="120.77" x2="285.34" y2="172.89"/>
<line class="st2" x1="287.18" y1="113.57" x2="387.81" y2="157.94"/>
<line class="st2" x1="299.25" y1="44.73" x2="345.95" y2="80.87"/>
<line class="st2" x1="302.06" y1="32.79" x2="353.01" y2="31.63"/>
<line class="st1" x1="342.89" y1="93.61" x2="288.57" y2="104.07"/>
</svg>
