<?xml version="1.0" encoding="utf-8"?>
<!-- Generator: Adobe Illustrator 23.0.3, SVG Export Plug-In . SVG Version: 6.00 Build 0)  -->
<svg version="1.1" id="Layer_1" xmlns="http://www.w3.org/2000/svg" xmlns:xlink="http://www.w3.org/1999/xlink" x="0px" y="0px"
	 viewBox="0 0 500 220" style="enable-background:new 0 0 500 220;" xml:space="preserve">
<style type="text/css">
	.st0{fill:#707070;stroke:#000000;stroke-miterlimit:10;}
	.st1{fill:#0080FF;stroke:#000000;stroke-miterlimit:10;}
	.st2{fill:none;stroke:#000000;stroke-miterlimit:10;}
	.st3{fill:none;stroke:#0080FF;stroke-width:3;stroke-miterlimit:10;}
	.st4{fill:#0080FF;stroke:#0080FF;stroke-width:3;stroke-miterlimit:10;}
</style>
<ellipse class="st0" cx="142.32" cy="54.15" rx="13.53" ry="13.89"/>
<ellipse class="st0" cx="341.28" cy="32.28" rx="13.53" ry="13.89"/>
<ellipse class="st0" cx="375.77" cy="159.94" rx="13.53" ry="13.89"/>
<ellipse class="st1" cx="250.04" cy="105.43" rx="13.53" ry="13.89"/>
<ellipse class="st1" cx="73.88" cy="125.46" rx="13.53" ry="13.89"/>
<ellipse class="st0" cx="263.53" cy="184.39" rx="13.53" ry="13.89"/>
<ellipse class="st0" cx="263.57" cy="33.43" rx="13.53" ry="13.89"/>
<ellipse class="st0" cx="138.32" cy="107.69" rx="13.53" ry="13.89"/>
<ellipse class="st0" cx="122.11" cy="178.6" rx="13.53" ry="13.89"/>
<ellipse class="st0" cx="331.42" cy="88.25" rx="13.53" ry="13.89"/>
<line class="st2" x1="154.61" y1="59.95" x2="237.82" y2="99.46"/>
<line class="st2" x1="151.85" y1="107.69" x2="236.51" y2="105.43"/>
<line class="st2" x1="240.16" y1="114.91" x2="133.1" y2="170.5"/>
<line class="st2" x1="253.8" y1="118.77" x2="260.34" y2="170.89"/>
<line class="st2" x1="262.18" y1="111.57" x2="362.81" y2="155.94"/>
<line class="st3" x1="274.25" y1="42.73" x2="320.95" y2="78.87"/>
<line class="st2" x1="277.06" y1="30.79" x2="328.01" y2="29.63"/>
<line class="st4" x1="317.89" y1="91.61" x2="263.57" y2="102.07"/>
</svg>
