<?xml version="1.0" encoding="utf-8"?>
<!-- Generator: Adobe Illustrator 23.0.3, SVG Export Plug-In . SVG Version: 6.00 Build 0)  -->
<svg version="1.1" id="Layer_1" xmlns="http://www.w3.org/2000/svg" xmlns:xlink="http://www.w3.org/1999/xlink" x="0px" y="0px"
	 viewBox="0 0 256 256" style="enable-background:new 0 0 256 256;" xml:space="preserve">
<style type="text/css">
	.st0{fill:#FFFFFF;stroke:#FFFFFF;stroke-miterlimit:10;}
	.st1{fill:#FFFFFF;stroke:#FFFFFF;stroke-width:6;stroke-miterlimit:10;}
	.st2{fill:#FFFFFF;stroke:#FFFFFF;stroke-width:5;stroke-miterlimit:10;}
</style>
<title>graphion</title>
<path class="st0" d="M128,50c-11.6,0-21,9.4-21,21s9.4,21,21,21s21-9.4,21-21S139.6,50,128,50L128,50z M128,85c-7.7,0-14-6.3-14-14
	s6.3-14,14-14s14,6.3,14,14S135.7,85,128,85z"/>
<path class="st0" d="M78,115c-9.9,0-18,8.1-18,18s8.1,18,18,18s18-8.1,18-18S87.9,115,78,115z M78,144.5c-6.4,0-11.5-5.1-11.5-11.5
	s5.1-11.5,11.5-11.5s11.5,5.1,11.5,11.5S84.4,144.5,78,144.5L78,144.5z"/>
<path class="st0" d="M178,115c-9.9,0-18,8.1-18,18s8.1,18,18,18s18-8.1,18-18S187.9,115,178,115z M178,144.5
	c-6.4,0-11.5-5.1-11.5-11.5s5.1-11.5,11.5-11.5s11.5,5.1,11.5,11.5S184.4,144.5,178,144.5L178,144.5z"/>
<path class="st0" d="M49,180c-7.2,0-13,5.8-13,13s5.8,13,13,13s13-5.8,13-13S56.2,180,49,180L49,180z M49,201c-4.4,0-8-3.6-8-8
	s3.6-8,8-8s8,3.6,8,8S53.4,201,49,201z"/>
<path class="st0" d="M207,180c-7.2,0-13,5.8-13,13s5.8,13,13,13s13-5.8,13-13S214.2,180,207,180L207,180z M207,201c-4.4,0-8-3.6-8-8
	s3.6-8,8-8s8,3.6,8,8S211.4,201,207,201z"/>
<path class="st0" d="M107,180c-7.2,0-13,5.8-13,13s5.8,13,13,13s13-5.8,13-13S114.2,180,107,180L107,180z M107,201c-4.4,0-8-3.6-8-8
	s3.6-8,8-8s8,3.6,8,8S111.4,201,107,201z"/>
<path class="st0" d="M149,180c-7.2,0-13,5.8-13,13s5.8,13,13,13s13-5.8,13-13S156.2,180,149,180L149,180z M149,201c-4.4,0-8-3.6-8-8
	s3.6-8,8-8s8,3.6,8,8S153.4,201,149,201z"/>
<line class="st1" x1="117.1" y1="84.5" x2="87.3" y2="121.5"/>
<line class="st1" x1="139.3" y1="85" x2="168.7" y2="121.5"/>
<line class="st2" x1="53.4" y1="184" x2="72" y2="145.5"/>
<line class="st2" x1="102.7" y1="184" x2="83.7" y2="144.8"/>
<line class="st2" x1="153.4" y1="184" x2="172" y2="145.5"/>
<line class="st2" x1="202.7" y1="184" x2="183.7" y2="144.8"/>
</svg>
