<?xml version="1.0" encoding="utf-8"?>
<!-- Generator: Adobe Illustrator 23.0.3, SVG Export Plug-In . SVG Version: 6.00 Build 0)  -->
<svg version="1.1" id="Layer_1" xmlns="http://www.w3.org/2000/svg" xmlns:xlink="http://www.w3.org/1999/xlink" x="0px" y="0px"
	 viewBox="0 0 256 256" style="enable-background:new 0 0 256 256;" xml:space="preserve">
<style type="text/css">
	.st0{fill:#FFFFFF;}
</style>
<title>graphion</title>
<rect x="83" y="186" class="st0" width="40" height="40"/>
<rect x="33" y="186" class="st0" width="40" height="40"/>
<rect x="133" y="186" class="st0" width="40" height="40"/>
<rect x="183" y="186" class="st0" width="40" height="40"/>
<rect x="83" y="82" class="st0" width="40" height="40"/>
<rect x="33" y="82" class="st0" width="40" height="40"/>
<rect x="133" y="82" class="st0" width="40" height="40"/>
<rect x="183" y="82" class="st0" width="40" height="40"/>
<rect x="83" y="134" class="st0" width="40" height="40"/>
<rect x="33" y="134" class="st0" width="40" height="40"/>
<rect x="133" y="134" class="st0" width="40" height="40"/>
<rect x="183" y="134" class="st0" width="40" height="40"/>
<rect x="83" y="30" class="st0" width="40" height="40"/>
<rect x="33" y="30" class="st0" width="40" height="40"/>
<rect x="133" y="30" class="st0" width="40" height="40"/>
<rect x="183" y="30" class="st0" width="40" height="40"/>
</svg>
