<?xml version="1.0" encoding="utf-8"?>
<!-- Generator: Adobe Illustrator 23.0.3, SVG Export Plug-In . SVG Version: 6.00 Build 0)  -->
<svg version="1.1" id="Layer_1" xmlns="http://www.w3.org/2000/svg" xmlns:xlink="http://www.w3.org/1999/xlink" x="0px" y="0px"
	 viewBox="0 0 256 256" style="enable-background:new 0 0 256 256;" xml:space="preserve">
<style type="text/css">
	.st0{fill:#FFFFFF;}
</style>
<title>graphion</title>
<path class="st0" d="M212.2,107.1c-3.6-11-15.4-17.1-26.5-13.5c0,0,0,0,0,0c-0.3,0.1-0.5,0.2-0.8,0.3c-8.8-12.4-21.5-21.6-36.1-26.2
	c0-0.3,0-0.5,0-0.8c0-11.6-9.4-21-21-21s-21,9.4-21,21c0,0.3,0,0.5,0,0.8C92.5,72.2,79.8,81.4,71,93.9c-0.3-0.1-0.5-0.2-0.8-0.3
	c-11-3.6-22.9,2.5-26.5,13.5s2.5,22.9,13.5,26.5c0.3,0.1,0.5,0.1,0.8,0.2c0,0.2,0,0.5,0,0.7c0,15,4.8,29.7,13.8,41.7
	c-0.2,0.2-0.3,0.4-0.5,0.6c-6.8,9.4-4.7,22.5,4.6,29.3s22.5,4.7,29.3-4.6l0,0c0.2-0.2,0.3-0.4,0.4-0.7c14.5,4.9,30.1,4.9,44.6,0
	c0.1,0.2,0.3,0.5,0.4,0.7c6.8,9.4,19.9,11.5,29.3,4.6s11.5-19.9,4.6-29.3l0,0c-0.2-0.2-0.3-0.4-0.5-0.6c9-12.1,13.8-26.7,13.8-41.7
	c0-0.2,0-0.5,0-0.7c0.3-0.1,0.5-0.1,0.8-0.2C209.8,130,215.8,118.1,212.2,107.1z M114.1,65.8c0.6-7.7,7.3-13.5,15-12.9
	c6.9,0.5,12.4,6,12.9,12.9c0,0.3,0.1,0.7,0.1,1c0,7.7-6.3,14-14,14s-14-6.3-14-14C114,66.5,114,66.2,114.1,65.8z M50.4,109.2
	c2.3-7,9.5-11,16.7-9.3c0.3,0.1,0.6,0.2,1,0.3c7.4,2.4,11.4,10.3,9,17.6c-2.4,7.3-10.3,11.4-17.6,9c-0.3-0.1-0.6-0.2-0.9-0.4
	C51.7,123.8,48.1,116.2,50.4,109.2L50.4,109.2z M101.8,192.8c-0.4,1.6-1.2,3.2-2.2,4.5c-0.2,0.3-0.4,0.5-0.6,0.8
	c-5,5.9-13.8,6.7-19.7,1.7c-5.3-4.5-6.5-12.2-2.9-18.1c0.2-0.3,0.4-0.6,0.6-0.8c4.5-6.3,13.3-7.6,19.5-3.1
	C101.2,181.2,103.3,187.2,101.8,192.8L101.8,192.8z M176,200.5c-5.9,4.3-14.2,3.3-18.9-2.3c-0.2-0.3-0.4-0.5-0.6-0.8
	c-4.5-6.3-3.1-15,3.1-19.6c6.2-4.5,15-3.1,19.5,3.1c0.2,0.3,0.4,0.6,0.6,0.8C183.5,188,181.9,196.1,176,200.5L176,200.5z M179.8,172
	c-9.5-6.7-22.6-4.4-29.2,5c-3.8,5.3-4.8,12.1-2.9,18.4c-12.8,4.1-26.6,4.1-39.4,0c3.4-11.1-2.7-22.8-13.8-26.3
	c-6.2-1.9-13-0.9-18.4,2.9C68.3,161.1,64,148,64,134.6c11.6-0.1,20.9-9.7,20.7-21.2c-0.1-6.5-3.2-12.7-8.4-16.6
	c7.9-10.9,19.1-19,31.8-23.1c3.7,11,15.6,16.9,26.6,13.1c6.2-2.1,11.1-7,13.1-13.1c12.8,4.2,23.9,12.3,31.8,23.1
	c-9.3,6.9-11.2,20.1-4.3,29.4c3.9,5.2,10,8.4,16.6,8.4C192,148,187.7,161.1,179.8,172L179.8,172z M197.5,126.5
	c-0.3,0.1-0.6,0.3-0.9,0.4c-7.4,2.4-15.3-1.6-17.6-9c-2.4-7.3,1.6-15.2,9-17.6c0.3-0.1,0.6-0.2,1-0.3c7.5-1.9,15.1,2.7,16.9,10.2
	C207.5,117,204,123.9,197.5,126.5z"/>
</svg>
