<?xml version="1.0" encoding="utf-8"?>
<!-- Generator: Adobe Illustrator 23.0.3, SVG Export Plug-In . SVG Version: 6.00 Build 0)  -->
<svg version="1.1" id="Layer_1" xmlns="http://www.w3.org/2000/svg" xmlns:xlink="http://www.w3.org/1999/xlink" x="0px" y="0px"
	 viewBox="0 0 256 256" style="enable-background:new 0 0 256 256;" xml:space="preserve">
<style type="text/css">
	.st0{fill:#FFFFFF;stroke:#FFFFFF;stroke-width:3;stroke-miterlimit:10;}
</style>
<title>graphion</title>
<line class="st0" x1="121" y1="115.4" x2="121" y2="65.4"/>
<path class="st0" d="M62.5,96.2c-7.2,0-13,5.8-13,13s5.8,13,13,13s13-5.8,13-13S69.7,96.2,62.5,96.2z M62.5,117.2c-4.4,0-8-3.6-8-8
	s3.6-8,8-8s8,3.6,8,8S67,117.2,62.5,117.2z"/>
<line class="st0" x1="71.9" y1="112.6" x2="103.5" y2="124.9"/>
<path class="st0" d="M199.9,114.4c-9.4,0-17,7.6-17,17s7.6,17,17,17s17-7.6,17-17S209.3,114.4,199.9,114.4z M199.9,143.4
	c-6.6,0-12-5.4-12-12c0-6.6,5.4-12,12-12s12,5.4,12,12C211.9,138,206.5,143.4,199.9,143.4z"/>
<line class="st0" x1="139.5" y1="131.4" x2="186.5" y2="131.4"/>
<path class="st0" d="M121,197.5c-7.2,0-13,5.8-13,13s5.8,13,13,13s13-5.8,13-13S128.2,197.5,121,197.5L121,197.5z M121,218.5
	c-4.4,0-8-3.6-8-8s3.6-8,8-8s8,3.6,8,8S125.5,218.5,121,218.5z"/>
<line class="st0" x1="121" y1="149.4" x2="121" y2="199.8"/>
<path class="st0" d="M57.1,149.8c-9.9,0-18,8.1-18,18s8.1,18,18,18s18-8.1,18-18l0,0C75.1,157.9,67,149.8,57.1,149.8z M57.1,179.3
	c-6.4,0-11.5-5.1-11.5-11.5s5.1-11.5,11.5-11.5s11.5,5.1,11.5,11.5S63.4,179.3,57.1,179.3L57.1,179.3z"/>
<line class="st0" x1="69.4" y1="158.4" x2="104.3" y2="140.2"/>
<path class="st0" d="M121,32.5c-9.9,0-18,8.1-18,18s8.1,18,18,18s18-8.1,18-18S131,32.5,121,32.5z M121,62
	c-6.4,0-11.5-5.1-11.5-11.5S114.7,39,121,39s11.5,5.1,11.5,11.5S127.4,62,121,62L121,62z"/>
<path class="st0" d="M121,110.4c-11.6,0-21,9.4-21,21s9.4,21,21,21s21-9.4,21-21l0,0C142,119.8,132.6,110.4,121,110.4z M121,145.4
	c-7.7,0-14-6.3-14-14s6.3-14,14-14s14,6.3,14,14S128.8,145.4,121,145.4z"/>
</svg>
