<svg xmlns="http://www.w3.org/2000/svg" viewBox="0 0 256 256">
    <defs>
        <style>.a,.c,.d{fill:none;stroke:#231f20;stroke-miterlimit:10;}.a{stroke-width:5px;}.b{fill:#231f20;}.c{stroke-width:3px;}.d{stroke-width:7px;}</style>
    </defs>
    <title>graphion</title>
    <line class="a" x1="121.04167" y1="115.41667" x2="121.04167" y2="65.41667"/>
    <path class="b" d="M62.54167,96.16667a13,13,0,1,0,13,13A13,13,0,0,0,62.54167,96.16667Zm0,21a8,8,0,1,1,8-8A8,8,0,0,1,62.54167,117.16667Z"/>
    <line class="c" x1="71.875" y1="112.58333" x2="103.45833" y2="124.91667"/>
    <path class="b" d="M199.91667,114.41667a17,17,0,1,0,17,17A17,17,0,0,0,199.91667,114.41667Zm0,29a12,12,0,1,1,12-12A12,12,0,0,1,199.91667,143.41667Z"/>
    <line class="a" x1="139.54167" y1="131.41667" x2="186.54167" y2="131.41667"/>
    <path class="b" d="M121.04167,197.5a13,13,0,1,0,13,13A13,13,0,0,0,121.04167,197.5Zm0,21a8,8,0,1,1,8-8A8,8,0,0,1,121.04167,218.5Z"/>
    <line class="a" x1="121.04167" y1="149.41667" x2="121.04167" y2="199.75"/>
    <path class="b" d="M57.08333,149.83333a18,18,0,1,0,18,18A18,18,0,0,0,57.08333,149.83333Zm0,29.5a11.5,11.5,0,1,1,11.5-11.5A11.5,11.5,0,0,1,57.08333,179.33333Z"/>
    <line class="d" x1="69.36449" y1="158.39846" x2="104.33333" y2="140.20833"/>
    <path class="b" d="M121.04167,32.5a18,18,0,1,0,18,18A18,18,0,0,0,121.04167,32.5Zm0,29.5a11.5,11.5,0,1,1,11.5-11.5A11.5,11.5,0,0,1,121.04167,62Z"/>
    <path class="b" d="M121.04167,110.41667a21,21,0,1,0,21,21A21,21,0,0,0,121.04167,110.41667Zm0,35a14,14,0,1,1,14-14A14,14,0,0,1,121.04167,145.41667Z"/>
</svg>
