<svg xmlns="http://www.w3.org/2000/svg" viewBox="0 0 256 256">
    <defs>
        <style>.a{fill:#231f20;}</style>
    </defs>
    <title>graphion</title>
    <rect class="a" x="83" y="186" width="40" height="40"/>
    <rect class="a" x="33" y="186" width="40" height="40"/>
    <rect class="a" x="133" y="186" width="40" height="40"/>
    <rect class="a" x="183" y="186" width="40" height="40"/>
    <rect class="a" x="83" y="82" width="40" height="40"/>
    <rect class="a" x="33" y="82" width="40" height="40"/>
    <rect class="a" x="133" y="82" width="40" height="40"/>
    <rect class="a" x="183" y="82" width="40" height="40"/>
    <rect class="a" x="83" y="134" width="40" height="40"/>
    <rect class="a" x="33" y="134" width="40" height="40"/>
    <rect class="a" x="133" y="134" width="40" height="40"/>
    <rect class="a" x="183" y="134" width="40" height="40"/>
    <rect class="a" x="83" y="30" width="40" height="40"/>
    <rect class="a" x="33" y="30" width="40" height="40"/>
    <rect class="a" x="133" y="30" width="40" height="40"/>
    <rect class="a" x="183" y="30" width="40" height="40"/>
</svg>
