<?xml version="1.0" encoding="utf-8"?>
<!-- Generator: Adobe Illustrator 23.0.3, SVG Export Plug-In . SVG Version: 6.00 Build 0)  -->
<svg version="1.1" id="Layer_1" xmlns="http://www.w3.org/2000/svg" xmlns:xlink="http://www.w3.org/1999/xlink" x="0px" y="0px"
	 viewBox="0 0 256 256" style="enable-background:new 0 0 256 256;" xml:space="preserve">
<style type="text/css">
	.st0{fill:none;stroke:#D7D5DD;stroke-width:3;stroke-miterlimit:10;}
	.st1{fill:#FFFFFF;stroke:#FFFFFF;stroke-width:5;stroke-miterlimit:10;}
	.st2{fill:#FFFFFF;stroke:#FFFFFF;stroke-miterlimit:10;}
	.st3{fill:#FFFFFF;stroke:#FFFFFF;stroke-width:3;stroke-miterlimit:10;}
	.st4{fill:#FFFFFF;stroke:#FFFFFF;stroke-width:7;stroke-miterlimit:10;}
</style>
<title>graphion</title>
<polyline class="st0" points="210.3,182 123.7,132 123.7,32 123.7,132 37.1,182 "/>
<line class="st1" x1="123.7" y1="116" x2="123.7" y2="66"/>
<path class="st2" d="M65.2,96.7c-7.2,0-13,5.8-13,13s5.8,13,13,13s13-5.8,13-13S72.4,96.7,65.2,96.7z M65.2,117.7c-4.4,0-8-3.6-8-8
	s3.6-8,8-8s8,3.6,8,8S69.7,117.7,65.2,117.7z"/>
<line class="st3" x1="74.6" y1="113.1" x2="106.2" y2="125.5"/>
<path class="st2" d="M202.6,115c-9.4,0-17,7.6-17,17s7.6,17,17,17s17-7.6,17-17S212,115,202.6,115z M202.6,144c-6.6,0-12-5.4-12-12
	c0-6.6,5.4-12,12-12s12,5.4,12,12C214.6,138.6,209.2,144,202.6,144z"/>
<line class="st1" x1="142.2" y1="132" x2="189.2" y2="132"/>
<path class="st2" d="M123.7,198c-7.2,0-13,5.8-13,13s5.8,13,13,13s13-5.8,13-13S130.9,198,123.7,198L123.7,198z M123.7,219
	c-4.4,0-8-3.6-8-8s3.6-8,8-8c4.4,0,8,3.6,8,8S128.2,219,123.7,219z"/>
<line class="st1" x1="123.7" y1="150" x2="123.7" y2="200.3"/>
<path class="st2" d="M59.8,150.4c-9.9,0-18,8.1-18,18s8.1,18,18,18s18-8.1,18-18S69.7,150.4,59.8,150.4z M59.8,179.9
	c-6.4,0-11.5-5.1-11.5-11.5s5.1-11.5,11.5-11.5s11.5,5.1,11.5,11.5l0,0C71.3,174.7,66.1,179.9,59.8,179.9z"/>
<line class="st4" x1="72.1" y1="158.9" x2="107" y2="140.8"/>
<path class="st2" d="M123.7,33c-9.9,0-18,8.1-18,18s8.1,18,18,18s18-8.1,18-18S133.7,33,123.7,33z M123.7,62.5
	c-6.4,0-11.5-5.1-11.5-11.5s5.1-11.5,11.5-11.5s11.5,5.1,11.5,11.5l0,0C135.2,57.4,130.1,62.5,123.7,62.5z"/>
<path class="st2" d="M123.7,111c-11.6,0-21,9.4-21,21s9.4,21,21,21s21-9.4,21-21S135.3,111,123.7,111z M123.7,146
	c-7.7,0-14-6.3-14-14s6.3-14,14-14s14,6.3,14,14S131.5,146,123.7,146z"/>
</svg>
