<svg xmlns="http://www.w3.org/2000/svg" viewBox="0 0 256 256">
    <defs>
        <style>.a{fill:#231f20;}.b,.c{fill:none;stroke:#231f20;stroke-miterlimit:10;}.b{stroke-width:6px;}.c{stroke-width:5px;}</style>
    </defs>
    <title>graphion</title>
    <path class="a" d="M128,50a21,21,0,1,0,21,21A21,21,0,0,0,128,50Zm0,35a14,14,0,1,1,14-14A14,14,0,0,1,128,85Z"/>
    <path class="a" d="M78,115a18,18,0,1,0,18,18A18,18,0,0,0,78,115Zm0,29.5A11.5,11.5,0,1,1,89.5,133,11.5,11.5,0,0,1,78,144.5Z"/>
    <path class="a" d="M178,115a18,18,0,1,0,18,18A18,18,0,0,0,178,115Zm0,29.5A11.5,11.5,0,1,1,189.5,133,11.5,11.5,0,0,1,178,144.5Z"/>
    <path class="a" d="M49,180a13,13,0,1,0,13,13A13,13,0,0,0,49,180Zm0,21a8,8,0,1,1,8-8A8,8,0,0,1,49,201Z"/>
    <path class="a" d="M207,180a13,13,0,1,0,13,13A13,13,0,0,0,207,180Zm0,21a8,8,0,1,1,8-8A8,8,0,0,1,207,201Z"/>
    <path class="a" d="M107,180a13,13,0,1,0,13,13A13,13,0,0,0,107,180Zm0,21a8,8,0,1,1,8-8A8,8,0,0,1,107,201Z"/>
    <path class="a" d="M149,180a13,13,0,1,0,13,13A13,13,0,0,0,149,180Zm0,21a8,8,0,1,1,8-8A8,8,0,0,1,149,201Z"/>
    <line class="b" x1="117.11767" y1="84.49409" x2="87.27419" y2="121.5"/>
    <line class="b" x1="139.29032" y1="85" x2="168.72581" y2="121.5"/>
    <line class="c" x1="53.35473" y1="183.99021" x2="71.96622" y2="145.48367"/>
    <line class="c" x1="102.66894" y1="184.03918" x2="83.69258" y2="144.77775"/>
    <line class="c" x1="153.35473" y1="183.99021" x2="171.96622" y2="145.48367"/>
    <line class="c" x1="202.66894" y1="184.03918" x2="183.69258" y2="144.77775"/>
</svg>
